<svg width="500" height="500" viewBox="0 0 500 500" fill="none" xmlns="http://www.w3.org/2000/svg">
<g clip-path="url(#clip0_1_2)">
<path d="M236.725 385H158.199L107.316 286.579L86.7165 298.904V385H16.8184V127.592H86.7165V239.394C90.2378 232.468 97.3392 221.494 108.02 206.469L162.073 127.592H238.133L156.967 242.915L236.725 385ZM483.569 127.592V282.53C483.569 316.217 474.003 342.333 454.87 360.879C435.855 379.307 408.389 388.521 372.471 388.521C337.376 388.521 310.379 379.542 291.481 361.583C272.701 343.625 263.311 317.802 263.311 284.114V127.592H333.209V278.656C333.209 296.85 336.613 310.055 343.42 318.271C350.228 326.487 360.264 330.596 373.528 330.596C387.73 330.596 398.001 326.546 404.339 318.447C410.795 310.231 414.023 296.85 414.023 278.304V127.592H483.569Z" fill="#FFD464"/>
</g>
<defs>
<clipPath id="clip0_1_2">
<rect width="500" height="500" fill="white"/>
</clipPath>
</defs>
</svg>
